# xmcd
#
# Track frame offsets: 
#        150
#        22530
#        44770
#        65002
#        81985
#        99335
#        119257
#        138617
#        155072
#        172520
#        188720
#        209145
#        226045
#        243812
#        260602
#        277750
#
# Disc length: 3914 seconds
#
# Revision: 0
# Processed by: cddbd v1.5.2PL0 Copyright (c) Steve Scherf et al.
# Submitted via: ExactAudioCopy v1.0b1
#
DISCID=d30f4810
DTITLE=渡哲也 - 渡哲也全曲集’92
DYEAR=1991
DGENRE=Other
TTITLE0=ありんこ
TTITLE1=冬の駅
TTITLE2=風蕭蕭と
TTITLE3=花飾り
TTITLE4=流氷の街
TTITLE5=ほのあかり
TTITLE6=雨降りやまず
TTITLE7=風の舞う港から
TTITLE8=日暮れ坂
TTITLE9=夜霧よ今夜も有難う
TTITLE10=ラストシーンは見たくない
TTITLE11=わかれ道
TTITLE12=雪わり草
TTITLE13=風車
TTITLE14=みちづれ
TTITLE15=くちなしの花
EXTD=
EXTT0=
EXTT1=
EXTT2=
EXTT3=
EXTT4=
EXTT5=
EXTT6=
EXTT7=
EXTT8=
EXTT9=
EXTT10=
EXTT11=
EXTT12=
EXTT13=
EXTT14=
EXTT15=
PLAYORDER=
